<?xml version="1.0" encoding="UTF-8" standalone="no"?>
<!DOCTYPE svg PUBLIC "-//W3C//DTD SVG 1.1//EN" "http://www.w3.org/Graphics/SVG/1.1/DTD/svg11.dtd">
<svg width="100%" height="100%" viewBox="0 0 524 61" version="1.1" xmlns="http://www.w3.org/2000/svg" xmlns:xlink="http://www.w3.org/1999/xlink" xml:space="preserve" xmlns:serif="http://www.serif.com/" style="fill-rule:evenodd;clip-rule:evenodd;stroke-linejoin:round;stroke-miterlimit:2;">
    <g transform="matrix(1,0,0,1,-548.742,-1301.79)">
        <g transform="matrix(4.16667,0,0,4.16667,594.22,1362.93)">
            <path d="M0,-14.669C3.349,-14.66 6.326,-14.078 9.148,-12.816C10.656,-12.142 12.152,-11.429 13.6,-10.636C17.022,-8.762 20.517,-7.056 24.202,-5.762C25.103,-5.446 26.016,-5.164 26.922,-4.863C29.337,-4.062 31.822,-3.901 34.329,-4.152C35.751,-4.294 37.166,-4.546 38.568,-4.83C40.122,-5.144 41.604,-5.695 43.019,-6.418C44.982,-7.42 46.949,-8.417 48.912,-9.42C51.149,-10.564 53.498,-11.396 55.957,-11.908C59.362,-12.616 62.81,-12.934 66.255,-12.435C71.352,-11.696 75.796,-9.563 79.337,-5.74C79.781,-5.261 80.131,-4.687 80.474,-4.126C80.771,-3.64 80.811,-3.081 80.715,-2.522C80.59,-1.794 80.032,-1.278 79.299,-1.186C78.683,-1.109 78.122,-1.274 77.631,-1.625C77.094,-2.008 76.578,-2.424 76.074,-2.85C75.036,-3.73 74.001,-4.613 72.812,-5.289C69.985,-6.896 66.988,-7.866 63.694,-7.85C60.775,-7.837 57.9,-7.577 55.091,-6.741C53.82,-6.363 52.593,-5.875 51.4,-5.301C50.771,-4.998 50.155,-4.668 49.524,-4.37C48.727,-3.993 47.94,-3.584 47.115,-3.281C44.08,-2.167 41.029,-1.092 37.85,-0.461C36.846,-0.261 35.814,-0.149 34.791,-0.103C31.92,0.025 29.058,-0.15 26.22,-0.592C24.181,-0.909 22.229,-1.567 20.296,-2.283C17.187,-3.436 14.237,-4.925 11.323,-6.492C9.639,-7.397 7.923,-8.235 6.144,-8.938C3.924,-9.815 1.62,-10.177 -0.76,-10.122C-2.253,-10.088 -3.676,-9.769 -5.02,-9.126C-5.715,-8.793 -6.381,-8.399 -7.073,-8.061C-7.5,-7.854 -7.938,-7.636 -8.395,-7.535C-9.254,-7.344 -10.013,-7.604 -10.533,-8.328C-11.058,-9.061 -11.012,-9.85 -10.574,-10.614C-10.255,-11.169 -9.762,-11.557 -9.229,-11.894C-7.54,-12.964 -5.731,-13.762 -3.786,-14.233C-2.459,-14.554 -1.108,-14.694 0,-14.669" style="fill:rgb(255,233,3);fill-rule:nonzero;"/>
        </g>
        <g transform="matrix(4.16667,0,0,4.16667,1058.42,1355.08)">
            <path d="M0,-7.849C1.198,-7.833 2.137,-7.318 2.734,-6.289C3.608,-4.782 3.539,-3.247 2.608,-1.798C1.759,-0.476 0.184,0.003 -1.298,-0.539C-1.845,-0.739 -2.383,-0.975 -2.905,-1.237C-3.744,-1.659 -4.173,-2.38 -4.249,-3.299C-4.277,-3.636 -4.254,-3.994 -4.171,-4.321C-3.802,-5.768 -2.949,-6.842 -1.599,-7.501C-1.046,-7.771 -0.628,-7.852 0,-7.849" style="fill:rgb(255,233,3);fill-rule:nonzero;"/>
        </g>
        <g transform="matrix(4.16667,0,0,4.16667,970.513,1320.16)">
            <path d="M0,7.244C-0.889,7.232 -1.686,6.95 -2.39,6.413C-2.94,5.994 -3.421,5.503 -3.782,4.909C-4.519,3.695 -4.342,2.437 -3.31,1.452C-1.894,0.102 0.511,-0.076 2.125,1.036C3.214,1.788 3.958,3.34 3.462,4.848C3.026,6.169 1.78,7.32 0,7.244" style="fill:rgb(255,233,3);fill-rule:nonzero;"/>
        </g>
    </g>
</svg>
