<?xml version="1.0" encoding="UTF-8" standalone="no"?>
<!DOCTYPE svg PUBLIC "-//W3C//DTD SVG 1.1//EN" "http://www.w3.org/Graphics/SVG/1.1/DTD/svg11.dtd">
<svg width="100%" height="100%" viewBox="0 0 264 102" version="1.1" xmlns="http://www.w3.org/2000/svg" xmlns:xlink="http://www.w3.org/1999/xlink" xml:space="preserve" xmlns:serif="http://www.serif.com/" style="fill-rule:evenodd;clip-rule:evenodd;stroke-linejoin:round;stroke-miterlimit:2;">
    <g transform="matrix(1,0,0,1,-620,-780.429)">
        <g transform="matrix(4.16667,0,0,4.16667,821.488,831.278)">
            <path d="M0,-0.322C-0.023,-1.473 0.164,-2.586 0.548,-3.653C1.533,-6.394 3.14,-8.688 5.293,-10.565C6.221,-11.374 7.29,-11.899 8.492,-12.123C10.405,-12.478 12.307,-11.647 13.355,-9.953C14.117,-8.72 14.402,-7.36 14.254,-5.903C14.157,-4.947 13.897,-4.034 13.546,-3.148C13.248,-2.397 12.941,-1.649 12.65,-0.895C12.333,-0.072 12.088,0.775 12.027,1.664C11.999,2.083 12.026,2.506 12.044,2.927C12.072,3.569 12.349,4.024 12.88,4.405C13.965,5.184 14.56,6.325 14.831,7.653C15.143,9.183 14.565,10.561 13.277,11.369C12.234,12.024 11.098,12.156 9.926,11.941C8.796,11.733 7.779,11.24 6.967,10.382C6.459,9.847 5.886,9.422 5.273,9.033C3.051,7.618 1.433,5.684 0.576,3.096C0.207,1.983 -0.03,0.853 0,-0.322" style="fill:rgb(255,64,180);fill-rule:nonzero;"/>
        </g>
        <g transform="matrix(4.16667,0,0,4.16667,705.98,829.993)">
            <path d="M0,0.404C-0.027,1.072 -0.003,1.746 -0.088,2.406C-0.513,5.678 -4.307,7.355 -7.17,5.438C-8.132,4.795 -8.658,3.854 -8.838,2.717C-8.911,2.264 -8.968,1.808 -9.054,1.357C-9.107,1.074 -9.342,0.94 -9.609,1.038C-9.872,1.135 -10.139,1.242 -10.372,1.395C-10.755,1.647 -10.917,2.018 -10.867,2.489C-10.805,3.085 -10.748,3.683 -10.729,4.281C-10.707,4.924 -10.856,5.547 -11.107,6.137C-11.705,7.539 -12.781,8.297 -14.297,8.376C-15.106,8.418 -15.919,8.378 -16.73,8.364C-16.904,8.361 -17.089,8.338 -17.25,8.275C-18.813,7.655 -19.984,6.662 -20.32,4.925C-20.454,4.233 -20.544,3.53 -20.614,2.827C-20.689,2.081 -20.556,1.348 -20.361,0.629C-19.984,-0.761 -19.285,-1.983 -18.325,-3.046C-15.92,-5.712 -12.99,-7.398 -9.379,-7.843C-7.991,-8.014 -6.64,-8.001 -5.294,-7.583C-3.044,-6.886 -0.297,-4.48 -0.091,-0.869C-0.067,-0.447 -0.088,-0.022 -0.088,0.402C-0.058,0.403 -0.029,0.403 0,0.404" style="fill:rgb(255,64,180);fill-rule:nonzero;"/>
        </g>
        <g transform="matrix(4.16667,0,0,4.16667,786.048,830.253)">
            <path d="M0,0.21C-0.007,2.124 -0.871,3.478 -2.567,4.277C-3.989,4.948 -5.423,4.992 -6.844,4.233C-8.355,3.425 -9.138,2.173 -9.128,0.46C-9.119,-1.025 -8.6,-2.319 -7.461,-3.294C-6.123,-4.439 -4.579,-4.782 -2.911,-4.162C-1.23,-3.538 -0.371,-2.219 -0.06,-0.503C-0.017,-0.261 -0.018,-0.011 0,0.21" style="fill:rgb(255,64,180);fill-rule:nonzero;"/>
        </g>
    </g>
</svg>
