<?xml version="1.0" encoding="UTF-8" standalone="no"?>
<!DOCTYPE svg PUBLIC "-//W3C//DTD SVG 1.1//EN" "http://www.w3.org/Graphics/SVG/1.1/DTD/svg11.dtd">
<svg width="100%" height="100%" viewBox="0 0 224 105" version="1.1" xmlns="http://www.w3.org/2000/svg" xmlns:xlink="http://www.w3.org/1999/xlink" xml:space="preserve" xmlns:serif="http://www.serif.com/" style="fill-rule:evenodd;clip-rule:evenodd;stroke-linejoin:round;stroke-miterlimit:2;">
    <g transform="matrix(1,0,0,1,-374.999,-1737.35)">
        <g transform="matrix(4.16667,0,0,4.16667,529.395,1751.31)">
            <path d="M0,18.33C-0.872,18.182 -2.01,17.983 -3.151,17.798C-5.596,17.401 -8.019,17.576 -10.411,18.159C-11.656,18.462 -12.894,18.815 -14.108,19.224C-16.421,20.005 -18.729,20.802 -21.126,21.28C-22.338,21.522 -23.576,21.671 -24.81,21.761C-26.685,21.898 -28.462,21.46 -30.151,20.641C-31.823,19.831 -33.328,18.79 -34.622,17.454C-35.311,16.742 -35.889,15.95 -36.339,15.064C-37.114,13.539 -37.272,11.937 -36.753,10.326C-35.851,7.524 -34.341,5.137 -31.78,3.533C-30.547,2.761 -29.339,1.946 -28.084,1.211C-24.835,-0.694 -21.294,-1.81 -17.624,-2.561C-13.136,-3.479 -8.628,-3.568 -4.089,-2.981C-2.261,-2.744 -0.444,-2.464 1.338,-2.001C4.831,-1.094 8.176,0.175 11.316,1.989C14.509,3.833 16.156,6.6 16.493,10.211C16.632,11.7 16.365,13.118 15.601,14.411C14.054,17.027 11.834,18.689 8.778,19.13C7.157,19.364 5.536,19.379 3.921,19.09C2.699,18.872 1.484,18.619 0,18.33" style="fill:rgb(0,113,206);fill-rule:nonzero;"/>
        </g>
    </g>
</svg>
