<?xml version="1.0" encoding="UTF-8" standalone="no"?>
<!DOCTYPE svg PUBLIC "-//W3C//DTD SVG 1.1//EN" "http://www.w3.org/Graphics/SVG/1.1/DTD/svg11.dtd">
<svg width="100%" height="100%" viewBox="0 0 536 74" version="1.1" xmlns="http://www.w3.org/2000/svg" xmlns:xlink="http://www.w3.org/1999/xlink" xml:space="preserve" xmlns:serif="http://www.serif.com/" style="fill-rule:evenodd;clip-rule:evenodd;stroke-linejoin:round;stroke-miterlimit:2;">
    <g transform="matrix(1,0,0,1,-557.004,-297.056)">
        <g transform="matrix(4.16667,0,0,4.16667,614.531,341.421)">
            <path d="M0,-3.722C-0.65,-3.527 -1.067,-3.096 -1.526,-2.74C-3.579,-1.143 -5.616,0.477 -7.682,2.058C-8.342,2.564 -9.051,3.017 -9.778,3.421C-10.286,3.704 -10.847,3.939 -11.413,4.058C-12.158,4.216 -12.906,4.11 -13.406,3.433C-13.884,2.785 -13.934,2.065 -13.557,1.351C-13.306,0.876 -13.046,0.394 -12.711,-0.021C-12.218,-0.629 -11.695,-1.226 -11.113,-1.748C-9.543,-3.157 -7.968,-4.565 -6.328,-5.89C-5.495,-6.563 -4.554,-7.13 -3.594,-7.61C-2.278,-8.269 -0.875,-8.433 0.538,-7.854C1.327,-7.53 1.945,-6.964 2.529,-6.364C3.555,-5.309 4.566,-4.238 5.59,-3.18C5.892,-2.868 6.215,-2.578 6.481,-2.323C7.166,-2.334 7.608,-2.679 8.042,-2.975C9.055,-3.665 10.055,-4.38 11.018,-5.138C12.599,-6.384 14.136,-7.684 15.712,-8.937C16.248,-9.363 16.813,-9.768 17.414,-10.092C19.133,-11.021 20.759,-10.789 22.1,-9.366C22.699,-8.731 23.224,-7.994 23.646,-7.228C24.332,-5.984 24.907,-4.678 25.529,-3.398C25.87,-2.698 26.211,-1.998 26.517,-1.372C26.981,-1.231 27.173,-1.5 27.386,-1.673C28.415,-2.507 29.428,-3.363 30.456,-4.199C31.826,-5.314 33.183,-6.449 34.591,-7.515C35.37,-8.105 36.224,-8.605 37.079,-9.082C37.588,-9.366 38.152,-9.572 38.714,-9.738C40.357,-10.221 41.84,-9.866 43.076,-8.693C43.821,-7.986 44.516,-7.216 45.161,-6.416C46.176,-5.154 47.13,-3.843 48.111,-2.554C48.287,-2.324 48.474,-2.102 48.709,-1.809C49.022,-2.016 49.32,-2.167 49.563,-2.381C50.888,-3.55 52.185,-4.751 53.521,-5.907C54.598,-6.838 55.699,-7.742 56.823,-8.614C57.362,-9.032 57.955,-9.4 58.568,-9.703C60.169,-10.493 61.702,-10.33 63.132,-9.25C64.012,-8.586 64.705,-7.753 65.155,-6.759C65.7,-5.554 66.158,-4.309 66.651,-3.081C66.834,-2.625 67.001,-2.164 67.195,-1.714C67.251,-1.585 67.375,-1.486 67.521,-1.31C67.801,-1.493 68.1,-1.647 68.352,-1.857C69.558,-2.864 70.737,-3.903 71.954,-4.896C73.247,-5.951 74.544,-7.006 75.893,-7.985C76.723,-8.587 77.617,-9.13 78.548,-9.554C80.641,-10.508 82.678,-10.321 84.508,-8.891C85.354,-8.23 86.114,-7.452 86.874,-6.688C88.293,-5.262 89.672,-3.795 91.091,-2.369C92.131,-1.324 92.217,-1.207 93.801,-1.92C96.277,-3.035 98.544,-4.492 100.562,-6.321C100.889,-6.618 101.207,-6.931 101.565,-7.186C102.884,-8.124 104.329,-8.156 105.694,-7.272C106.062,-7.034 106.393,-6.733 106.713,-6.432C106.962,-6.197 107.186,-5.93 107.388,-5.654C109.133,-3.269 111.153,-1.129 113.229,0.965C113.608,1.347 113.966,1.76 114.267,2.205C115.068,3.39 115.004,4.919 114.154,5.903C113.246,6.954 111.863,7.299 110.542,6.711C110.017,6.478 109.515,6.122 109.102,5.719C106.708,3.384 104.428,0.948 102.727,-1.964C102.628,-2.134 102.552,-2.318 102.463,-2.499C101.607,-2.246 101.024,-1.8 100.428,-1.39C98.85,-0.305 97.295,0.814 95.699,1.87C95.049,2.3 94.34,2.664 93.615,2.951C91.892,3.635 90.214,3.468 88.735,2.341C87.724,1.571 86.774,0.705 85.887,-0.206C84.862,-1.26 83.938,-2.413 82.964,-3.517C82.48,-4.066 82.021,-4.645 81.36,-5.015C80.67,-4.93 80.175,-4.519 79.666,-4.144C78.125,-3.008 76.61,-1.836 75.045,-0.733C73.723,0.2 72.371,1.097 70.984,1.929C70.277,2.353 69.483,2.663 68.693,2.911C67.387,3.32 66.252,2.954 65.414,1.867C64.006,0.04 62.632,-1.813 61.245,-3.656C60.956,-4.041 60.788,-4.527 60.28,-4.799C59.775,-4.638 59.396,-4.237 58.966,-3.928C56.297,-2.006 53.638,-0.07 50.964,1.846C50.528,2.159 50.057,2.437 49.569,2.661C48.416,3.191 47.256,3.152 46.212,2.417C45.577,1.97 44.972,1.441 44.474,0.847C43.466,-0.356 42.541,-1.628 41.58,-2.87C41.132,-3.449 40.682,-4.026 40.192,-4.657C39.878,-4.498 39.606,-4.399 39.377,-4.238C38.653,-3.731 37.946,-3.201 37.231,-2.681C35.406,-1.353 33.6,0.005 31.745,1.29C30.902,1.873 29.982,2.362 29.053,2.8C28.441,3.089 27.76,3.256 27.094,3.396C26.04,3.617 25.152,3.22 24.439,2.463C24.038,2.037 23.706,1.543 23.368,1.062C22.096,-0.744 20.837,-2.56 19.565,-4.366C19.374,-4.637 19.139,-4.878 18.942,-5.112C18.345,-5.009 18.037,-4.597 17.681,-4.275C16.878,-3.553 16.108,-2.795 15.312,-2.065C13.863,-0.735 12.375,0.556 10.626,1.48C9.808,1.912 8.941,2.302 8.05,2.533C5.902,3.091 4.432,2.286 3.611,0.618C2.931,-0.764 2.038,-1.986 0.902,-3.024C0.62,-3.282 0.296,-3.495 0,-3.722" style="fill:rgb(0,181,81);fill-rule:nonzero;"/>
        </g>
    </g>
</svg>
